<?xml version="1.0" encoding="UTF-8" standalone="no"?>
<!-- Created with Inkscape (http://www.inkscape.org/) -->
<svg xmlns:dc="http://purl.org/dc/elements/1.1/" xmlns:cc="http://creativecommons.org/ns#" xmlns:rdf="http://www.w3.org/1999/02/22-rdf-syntax-ns#" xmlns:svg="http://www.w3.org/2000/svg" xmlns="http://www.w3.org/2000/svg" xmlns:sodipodi="http://sodipodi.sourceforge.net/DTD/sodipodi-0.dtd" xmlns:inkscape="http://www.inkscape.org/namespaces/inkscape" id="svg3336" version="1.1" inkscape:version="0.91 r13725" width="810" height="107.7" viewBox="0 0 810 107.7" sodipodi:docname="Funimation 2016.svg">
  <metadata id="metadata3342">
    <rdf:RDF>
      <cc:Work rdf:about="">
        <dc:format>image/svg+xml</dc:format>
        <dc:type rdf:resource="http://purl.org/dc/dcmitype/StillImage"/>
        <dc:title/>
      </cc:Work>
    </rdf:RDF>
  </metadata>
  <defs id="defs3340"/>
  <sodipodi:namedview pagecolor="#ffffff" bordercolor="#666666" borderopacity="1" objecttolerance="10" gridtolerance="10" guidetolerance="10" inkscape:pageopacity="0" inkscape:pageshadow="2" inkscape:window-width="1600" inkscape:window-height="847" id="namedview3338" showgrid="false" inkscape:zoom="1.7777778" inkscape:cx="368.15684" inkscape:cy="53.849998" inkscape:window-x="-8" inkscape:window-y="-8" inkscape:window-maximized="1" inkscape:current-layer="svg3336"/>
  <path style="fill:#472d8e;fill-opacity:1" d="M 102.30001,107.38815 C 98.782742,107.05461 95.420592,106.4024 92.161282,105.4214 79.826392,101.7088 70.884242,92.059275 67.460562,78.766716 65.847412,72.503604 65.910622,74.072715 65.789222,37.275 L 65.676142,3 l 7.06193,0 7.06194,0 0,32.711823 c 0,21.470673 0.11157,33.712362 0.32466,35.623395 1.22358,10.97322 7.80153,18.438732 19.47409,22.101759 5.712918,1.7928 10.300078,1.874604 15.855978,0.282762 10.05046,-2.879592 16.03688,-9.164388 18.02582,-18.924279 0.60465,-2.967069 0.61945,-3.861258 0.61945,-37.417584 l 0,-34.377876 7.5,0 7.5,0 0,33.636498 c 0,36.422937 -0.006,36.58878 -1.65339,42.713502 -3.62536,13.481862 -12.92945,23.01539 -25.77737,26.41302 -5.82134,1.53945 -13.48886,2.18278 -19.36924,1.62513 z m 357.01059,-0.0144 c -5.86008,-0.56414 -11.69325,-2.29041 -15.73584,-4.65684 -2.7297,-1.59791 -6.64734,-5.224719 -8.35122,-7.731282 -1.56246,-2.298531 -3.32748,-6.133734 -3.95124,-8.585649 -0.88803,-3.490659 -1.23036,-8.633427 -0.83538,-12.549267 0.65592,-6.502584 2.46213,-10.956519 5.98725,-14.763981 4.42824,-4.782897 9.31587,-7.563003 17.34072,-9.863445 4.80909,-1.378602 8.59356,-2.024772 20.38512,-3.480624 15.67689,-1.935555 17.39649,-2.193669 19.26018,-2.890962 2.19966,-0.822996 4.00374,-2.633052 4.9134,-4.929666 0.61695,-1.557627 0.70242,-2.280279 0.70641,-5.972055 0.004,-3.553241 -0.10251,-4.546478 -0.69078,-6.45 -2.08506,-6.747029 -6.98457,-10.51867 -15.35592,-11.820965 -12.12411,-1.886098 -22.47003,0.304945 -28.30092,5.993534 -3.29019,3.209864 -5.57217,9.242916 -5.58009,14.752431 l -0.003,1.575 -7.35,0 -7.35,0 0.006,-0.675 c 0.0249,-2.860797 1.23111,-9.068427 2.46303,-12.675 2.83761,-8.307296 9.86124,-15.5041548 18.31113,-18.7627854 7.23825,-2.7913592 16.77324,-4.01303552 25.70988,-3.29409261 12.02445,0.96735461 18.37902,3.37578831 24.16011,9.15687801 4.29894,4.298926 6.33303,7.972533 7.85931,14.193924 0.43398,1.769072 0.51273,5.692132 0.66642,33.206076 0.17247,30.879708 0.18069,31.212318 0.80037,32.4 1.49148,2.858661 5.14521,3.585231 9.1989,1.829271 l 1.125,-0.487323 0,6.567351 0,6.567352 -2.475,0.41167 c -3.03945,0.50557 -9.7104,0.51917 -11.87208,0.0242 -3.67686,-0.84187 -6.74211,-3.16403 -8.29911,-6.287129 -0.87972,-1.764615 -1.64073,-4.961475 -1.64859,-6.925404 -0.003,-0.715002 -0.12321,-1.255002 -0.26742,-1.2 -0.14418,0.055 -1.06449,1.112499 -2.0451,2.349999 -5.47212,6.905607 -10.69143,10.771404 -17.57769,13.019304 -5.9994,1.9584 -13.74633,2.67246 -21.20442,1.95447 z m 13.21155,-12.756063 c 11.32704,-1.93182 19.7001,-7.866882 23.97843,-16.996602 2.19723,-4.688763 2.47038,-6.392337 2.6208,-16.346106 0.073,-4.82625 0.0701,-8.775 -0.006,-8.775 -0.0764,0 -0.72978,0.259866 -1.452,0.577479 -2.79885,1.230858 -10.14033,2.646636 -21.86313,4.216224 -19.23096,2.574873 -28.34685,7.094115 -30.48153,15.111354 -0.54861,2.060448 -0.52803,6.548283 0.0401,8.729253 1.76625,6.781074 7.91262,12.09909 15.76404,13.639512 2.25621,0.442656 8.3805,0.358788 11.39958,-0.156114 z m 82.17786,10.970973 c -8.97801,-1.07041 -13.95117,-4.82906 -15.74745,-11.901759 -0.98283,-3.86985 -1.0407,-6.18489 -1.04661,-41.861901 l -0.006,-35.925 -8.7,0 -8.7,0 0,-6.3 0,-6.3 26.1,0 26.1,0 0,6.3 0,6.3 -10.2,0 -10.2,0 0.009,33.525 c 0.009,31.840428 0.10674,36.163458 0.88479,39.052911 0.74427,2.763984 2.79099,4.320948 6.35439,4.833861 1.80537,0.259863 10.3941,-0.07852 12.32655,-0.485637 l 0.825,-0.173808 0,6.426495 0,6.426498 -5.44809,0.19734 c -6.456,0.23385 -9.89637,0.2026 -12.55191,-0.114 z M 0.08514153,68.325 C 0.20734153,28.210835 0.12245153,30.188934 1.9871815,24 6.2942415,9.7050615 18.238162,1.6277177 37.019412,0.30868389 c 5.68293,-0.39912031 13.6096,0.0622681 18.1056,1.05387391 l 0.675,0.1488734 0,6.8384379 0,6.8384379 -2.775,-0.420313 c -1.63017,-0.246912 -5.37407,-0.434129 -9.075,-0.453803 -5.49194,-0.0292 -6.70105,0.0532 -9.42676,0.642388 -9.3789,2.027336 -15.2676,6.499258 -18.07339,13.725069 -1.40922,3.629186 -1.77212,6.670307 -1.68086,14.085665 l 0.081,6.582687 17.025,0.07748 17.025,0.07747 0,6.747525 0,6.747525 -16.95,0 -16.95,0 0,21 0,21 -7.5133005,0 -7.51329997,0 0.11173,-36.675 z M 160.50001,54.15 l 0,-50.85 7.34426,0 7.34426,0 0.0807,6.6383412 0.0807,6.6383408 1.0382,-1.613341 c 1.46918,-2.28306 5.44452,-6.1679227 8.23596,-8.0485072 4.41976,-2.9775768 9.94339,-5.1746608 15.30287,-6.08688279 2.72929,-0.46454484 10.90004,-0.4331892 14.57297,0.0559244 14.43368,1.92209279 23.87745,9.55247659 27.14359,21.93149559 1.81083,6.863224 1.74376,5.234038 1.86739,45.359629 l 0.11347,36.825 -7.19714,0 -7.19714,0 -0.11947,-34.575 c -0.12876,-37.259595 -0.11703,-36.973638 -1.73678,-42.375 -2.11304,-7.046363 -6.78742,-11.840868 -13.5678,-13.916472 -4.71283,-1.442685 -12.10416,-1.454901 -17.25146,-0.02851 -9.52306,2.638975 -16.66882,10.097952 -19.70232,20.565921 -1.65852,5.723235 -1.64983,5.51676 -1.65113,39.204063 L 175.20014,105 l -7.35,0 -7.35,0 0,-50.85 z m 93.9,0 0,-50.85 7.35,0 7.35,0 0,50.85 0,50.85 -7.35,0 -7.35,0 0,-50.85 z m 27,0 0,-50.85 6.74447,0 6.74447,0 0.0805,6.951784 0.0805,6.951785 1.68082,-2.226785 c 5.42924,-7.1927752 11.64194,-11.5101625 19.163,-13.3169515 9.53799,-2.2913136 19.18167,-1.43404858 26.8869,2.390082 5.36685,2.6635878 8.98788,6.1194815 11.5284,11.0026585 0.67167,1.291085 1.2621,2.347427 1.31205,2.347427 0.0499,0 0.71604,-0.94029 1.48026,-2.089533 4.92705,-7.4096082 12.75561,-12.3058527 22.85946,-14.2970448 3.22716,-0.63598755 10.74555,-0.71043441 14.38911,-0.14248095 8.205,1.27897835 13.92552,4.05222675 18.41985,8.92973865 4.88952,5.3064121 7.48092,12.4876711 8.1318,22.5349071 0.15729,2.427927 0.28878,19.770663 0.29217,38.539413 l 0.006,34.125 -7.35,0 -7.35,0 0,-35.482869 c 0,-22.641447 -0.11247,-36.402882 -0.3108,-38.025 -0.99114,-8.106727 -4.19403,-13.608827 -9.33291,-16.032579 -2.80059,-1.320897 -4.92603,-1.863404 -8.92038,-2.276867 -12.34377,-1.277725 -21.63429,3.75094 -25.97955,14.061863 -1.24782,2.961006 -1.80615,4.90884 -2.61018,9.106245 -0.63858,3.333699 -0.65328,4.027941 -0.7623,36.024207 L 358.4725,105 l -7.32852,0 -7.32855,0 -0.0911,-37.575 -0.091,-37.575 -0.67656,-2.55 c -1.41366,-5.328377 -4.19622,-9.516967 -7.67109,-11.547372 -3.81831,-2.23107 -8.69193,-3.131345 -14.01042,-2.588069 -7.07517,0.722721 -11.61327,2.726902 -16.04361,7.085441 -4.49013,4.417359 -7.2052,10.351656 -8.72722,19.075014 -0.43024,2.465868 -0.50844,6.819783 -0.61517,34.249986 l -0.12228,31.425 -7.18359,0 -7.18359,0 0,-50.85 z m 303,0 0,-50.85 7.2,0 7.2,0 0,50.85 0,50.85 -7.2,0 -7.2,0 0,-50.85 z m 71.4,50.41908 c -5.98482,-0.86148 -11.22939,-2.4716 -16.35,-5.019591 C 613.76914,86.770827 603.08779,55.950801 615.34609,30 625.76185,7.9498941 650.38984,-3.9824706 674.39518,1.3904753 694.48399,5.8868046 709.894,21.636155 714.30766,42.1818 c 0.82329,3.832308 1.13601,12.563781 0.60264,16.82445 -0.73116,5.840217 -2.47881,11.59083 -5.15475,16.961562 -2.8737,5.767611 -5.76981,9.643833 -10.86531,14.542335 -7.68993,7.392684 -16.33458,11.751743 -27.34023,13.786303 -3.40701,0.62983 -12.20988,0.78221 -15.75,0.27263 z m 12.83766,-20.427507 c 3.11247,-0.617058 7.29294,-2.685444 9.28194,-4.592457 1.96743,-1.886373 3.75105,-4.633086 4.55562,-7.015533 0.34362,-1.017546 0.62478,-1.958874 0.62478,-2.091834 0,-0.132963 -9.06267,-0.241749 -20.13924,-0.241749 l -20.13927,0 0.18171,1.125 c 0.29187,1.806828 2.18898,5.308389 3.88146,7.164108 2.60406,2.855205 5.98794,4.723053 10.26534,5.666268 2.50998,0.553482 8.66349,0.546087 11.48766,-0.0138 z M 726.90001,54.15 l 0,-50.85 7.19427,0 7.19424,0 0.0808,6.6458607 0.0807,6.6458603 1.54764,-2.08173 c 5.1033,-6.8644604 13.04418,-11.6884744 22.2477,-13.51526081 3.7767,-0.74963008 12.4854,-0.66875985 17.16075,0.15935711 14.21601,2.5179997 22.80621,10.0450547 25.78692,22.5954687 1.64109,6.909868 1.60608,5.996492 1.72635,45.025444 l 0.1116,36.225 -7.36548,0 -7.36548,0 0,-33.734634 c 0,-36.070065 -0.0501,-37.484781 -1.51494,-42.753767 -2.24491,-8.074859 -7.58482,-13.114217 -15.7687,-14.881139 -2.84697,-0.614669 -9.54321,-0.7048 -12.41637,-0.167124 -11.58891,2.16873 -19.76088,10.334763 -22.93713,22.920445 -1.28172,5.078712 -1.36287,7.388019 -1.36287,38.777985 l 0,29.838234 -7.2,0 -7.2,0 0,-50.85 z" id="path3346" inkscape:connector-curvature="0"/>
</svg>