<?xml version="1.0" encoding="UTF-8"?>
<svg id="Layer_1" data-name="Layer 1" xmlns="http://www.w3.org/2000/svg" viewBox="0 0 80.04 50.02">
  <defs>
    <style>
      .cls-1 {
        fill: #1399ff;
        stroke-width: 0px;
      }
    </style>
  </defs>
  <path class="cls-1" d="m1.15,29.22c-.22.01-.43-.06-.59-.2-.14-.17-.2-.38-.18-.6V8.02c-.03-.22.04-.43.18-.6.17-.13.37-.19.58-.17h2.22c.42-.04.8.25.86.67l.22.8c.64-.62,1.39-1.1,2.22-1.43.85-.34,1.75-.52,2.66-.52,1.82-.06,3.56.75,4.68,2.18,1.24,1.71,1.85,3.78,1.74,5.89.03,1.53-.26,3.05-.86,4.45-.5,1.17-1.3,2.18-2.33,2.93-.99.68-2.18,1.03-3.38,1-.82,0-1.63-.13-2.4-.4-.71-.24-1.36-.61-1.93-1.1v6.72c.02.21-.04.43-.17.6-.17.13-.39.19-.6.17H1.15Zm6.73-9.36c.99.07,1.94-.37,2.53-1.17.62-1.12.9-2.39.81-3.67.1-1.29-.18-2.58-.8-3.71-.59-.81-1.55-1.25-2.55-1.17-1.06,0-2.09.29-3,.83v8.05c.9.56,1.94.85,3,.85h.01Z"/>
  <path class="cls-1" d="m19.54,22.9c-.36.07-.7-.17-.77-.53-.01-.08-.01-.16,0-.24v-14.11c-.02-.22.04-.43.18-.6.17-.13.37-.19.58-.17h2.21c.42-.04.8.25.86.67l.4,1.64c.66-.77,1.44-1.42,2.32-1.92.72-.38,1.51-.57,2.32-.57h.43c.22-.02.43.04.61.17.14.17.2.38.18.6v2.58c.02.21-.04.41-.17.58-.17.14-.38.2-.6.18h-1.41c-.58.01-1.15.08-1.72.2-.59.11-1.17.28-1.72.51v10.25c.02.21-.04.41-.17.58-.17.14-.38.2-.6.18h-2.93Z"/>
  <path class="cls-1" d="m33.29,4.81c-.68.03-1.35-.2-1.87-.64-.48-.45-.74-1.09-.71-1.75-.03-.66.23-1.31.71-1.76,1.1-.88,2.65-.88,3.75,0,.48.45.74,1.09.71,1.75.03.66-.23,1.3-.71,1.75-.52.45-1.19.68-1.88.65Zm-1.47,18.1c-.36.07-.7-.17-.77-.53-.01-.08-.01-.16,0-.24v-14.12c-.02-.22.04-.43.18-.6.17-.13.37-.19.58-.17h2.95c.21-.02.43.04.6.17.13.17.19.39.17.6v14.12c.02.21-.04.41-.17.58-.17.14-.38.2-.6.18h-2.94Z"/>
  <path class="cls-1" d="m40.1,22.9c-.36.07-.7-.17-.77-.53-.01-.08-.01-.16,0-.24v-14.11c-.03-.22.04-.43.18-.6.17-.13.37-.19.58-.17h2.21c.42-.04.8.25.86.67l.25.83c.91-.63,1.89-1.14,2.93-1.52.85-.3,1.75-.45,2.66-.46,1.58-.14,3.09.64,3.9,2,.91-.63,1.9-1.13,2.95-1.5.92-.31,1.89-.46,2.86-.46,1.23-.07,2.43.36,3.33,1.2.83.91,1.25,2.11,1.18,3.34v10.79c.02.21-.04.41-.17.58-.17.14-.38.2-.6.18h-2.91c-.36.07-.7-.17-.77-.53-.01-.08-.01-.16,0-.24v-9.84c0-1.39-.62-2.09-1.87-2.09-1.16.01-2.31.29-3.35.8v11.14c.02.21-.04.41-.17.58-.17.14-.38.2-.6.18h-2.94c-.36.07-.7-.17-.77-.53-.01-.08-.01-.16,0-.24v-9.84c0-1.39-.62-2.09-1.87-2.09-1.18,0-2.33.29-3.38.83v11.1c.02.21-.04.41-.17.58-.17.14-.38.2-.6.18h-2.95Z"/>
  <path class="cls-1" d="m73.92,23.36c-2.15.14-4.27-.61-5.85-2.09-1.44-1.65-2.16-3.81-2-6-.14-2.27.59-4.5,2.04-6.25,1.51-1.56,3.64-2.39,5.81-2.27,1.61-.1,3.2.39,4.47,1.38,1.08.92,1.67,2.28,1.61,3.7.07,1.39-.59,2.71-1.74,3.48-1.55.89-3.33,1.3-5.11,1.18-1.01.01-2.02-.1-3-.34,0,1.11.45,2.16,1.24,2.94.93.66,2.07.98,3.21.89.56,0,1.12-.04,1.67-.11.76-.12,1.52-.28,2.26-.48h.33c.35,0,.52.24.52.71v1.41c.02.24-.03.48-.14.69-.14.17-.33.29-.54.35-1.53.56-3.15.84-4.78.81Zm-1-9.63c.79.06,1.57-.11,2.27-.48.48-.33.75-.88.71-1.46,0-1.29-.77-1.93-2.3-1.93-1.97,0-3.1,1.21-3.41,3.62.89.17,1.8.26,2.71.25h.02Z"/>
  <path class="cls-1" d="m72.31,40.13c-8.76,6.46-21.46,9.89-32.39,9.89-14.61.08-28.72-5.29-39.57-15.07-.82-.74-.09-1.75.9-1.18,12.06,6.89,25.7,10.5,39.59,10.49,10.36-.06,20.61-2.15,30.16-6.17,1.52-.63,2.76.93,1.31,2.04Z"/>
  <path class="cls-1" d="m76,36.02c-1.12-1.43-7.4-.68-10.23-.34-.86.1-1-.64-.22-1.18,5-3.52,13.23-2.5,14.18-1.32s-.25,9.41-5,13.34c-.72.6-1.41.28-1.09-.52,1.07-2.69,3.44-8.59,2.36-9.98Z"/>
</svg>